<?xml version="1.0" encoding="utf-8"?>
<!-- Generator: Adobe Illustrator 23.1.1, SVG Export Plug-In . SVG Version: 6.00 Build 0)  -->
<svg version="1.1"
	 id="svg404300" xmlns:cc="http://creativecommons.org/ns#" xmlns:dc="http://purl.org/dc/elements/1.1/" xmlns:rdf="http://www.w3.org/1999/02/22-rdf-syntax-ns#" xmlns:svg="http://www.w3.org/2000/svg"
	 xmlns="http://www.w3.org/2000/svg" xmlns:xlink="http://www.w3.org/1999/xlink" x="0px" y="0px" viewBox="0 0 1024 768"
	 style="enable-background:new 0 0 1024 768;" xml:space="preserve">
<style type="text/css">
	.st0{fill:#F1F0F2;}
	.st1{display:none;fill:#328895;}
	.st2{fill:#C159BF;stroke:#E9E6ED;stroke-width:2;}
	.st3{fill:#E9E6ED;}
</style>
<g id="logo-group">
	<g>
		<defs>
			<rect id="SVGID_1_" x="239.2" y="363.2" width="41.6" height="41.6"/>
		</defs>
		<clipPath id="SVGID_2_">
			<use xlink:href="#SVGID_1_"  style="overflow:visible;"/>
		</clipPath>
		<g transform="matrix(1 0 0 1 1.525879e-05 0)" style="clip-path:url(#SVGID_2_);enable-background:new    ;">
			
				<image style="overflow:visible;" width="200" height="200" id="icon" xlink:href="749462142CBF3E8B.png"  transform="matrix(0.2079 0 0 0.2079 239.2213 363.21)">
			</image>
		</g>
	</g>
	<g id="title">
		<path id="path404308" class="st0" d="M187.1,371.7V403c0,0.8-0.7,1.2-2.2,1.2s-2.2-0.4-2.2-1.2v-14.6h-16.4V403
			c0,0.8-0.7,1.2-2.2,1.2s-2.2-0.4-2.2-1.2v-31.3c0-2,0.6-3.7,1.8-5c1.2-1.3,2.7-2.2,4.5-2.8c1.8-0.5,4-0.8,6.5-0.8
			C183,363.2,187.1,366.1,187.1,371.7z M166.4,371.2v13.4h16.4v-13.4c0-2.8-2.7-4.2-8.2-4.2C169.1,367,166.4,368.4,166.4,371.2z"/>
		<path id="path404310" class="st0" d="M202.7,364h22.7c0.7,0,1.1,0.6,1.1,1.9c0,1.3-0.4,1.9-1.1,1.9h-9.2V403
			c0,0.8-0.7,1.2-2.2,1.2s-2.2-0.4-2.2-1.2v-35.2h-9.2c-0.7,0-1.1-0.6-1.1-1.9S202,364,202.7,364L202.7,364z"/>
		<path id="path404312" class="st1" d="M253.8-43v32.7c0,4-1.6,6.9-4.7,8.7c-3.1,1.8-7.2,2.7-12.2,2.7c-10.9,0-16.4-3.8-16.4-11.4
			V-43c0-4,1.5-6.9,4.6-8.6c3.1-1.8,7.2-2.7,12.3-2.7C248.3-54.4,253.8-50.6,253.8-43z M226.2-43.7v34.1c0,3.7,3.6,5.6,10.9,5.6
			c7.3,0,10.9-1.9,10.9-5.6v-34.1c0-3.7-3.6-5.6-10.9-5.6C229.8-49.3,226.2-47.4,226.2-43.7z"/>
		<path id="path404314" class="st0" d="M328.3,403v-35.2h-0.5c-1.2,0-1.9,0.2-2.2,0.5s-0.6,1.1-0.9,2.4l-7.1,28
			c-0.2,0.8-0.9,1.2-2.1,1.2s-1.9-0.4-2.1-1.2l-7.1-28c-0.3-1.3-0.6-2.1-0.9-2.4c-0.3-0.3-1-0.5-2.2-0.5h-0.5V403
			c0,0.8-0.7,1.2-2.2,1.2c-1.4,0-2.2-0.4-2.2-1.2v-34.9c0-1.6,0.2-2.6,0.5-3.2c0.4-0.6,1.3-0.9,2.7-0.9h1.2c2.5,0,4.2,0.3,5.1,0.9
			c0.9,0.6,1.6,2,2.2,4.3l5.5,22.4l5.5-22.4c0.5-2.3,1.2-3.7,2.1-4.3c0.9-0.6,2.6-0.9,5.1-0.9h1.2c1.4,0,2.3,0.3,2.6,0.9
			c0.4,0.5,0.6,1.6,0.6,3.2V403c0,0.8-0.7,1.2-2.2,1.2C329,404.2,328.3,403.8,328.3,403z"/>
		<path id="path404316" class="st0" d="M356.8,365v38c0,0.8-0.7,1.2-2.2,1.2s-2.2-0.4-2.2-1.2v-38c0-0.8,0.7-1.2,2.2-1.2
			S356.8,364.2,356.8,365z"/>
		<path id="path404318" class="st0" d="M380.5,371.2v25.6c0,2.8,2.6,4.2,7.9,4.2c5.3,0,7.9-1.4,7.9-4.2v-3.9c0-0.8,0.7-1.2,2.2-1.2
			c1.4,0,2.2,0.4,2.2,1.2v3.3c0,5.7-4,8.5-12,8.5c-3.7,0-6.8-0.7-9-2c-2.3-1.4-3.4-3.5-3.4-6.5v-24.5c0-3,1.1-5.1,3.4-6.5
			c2.3-1.4,5.3-2.1,9-2.1c8,0,12,2.8,12,8.5v3.3c0,0.8-0.7,1.2-2.2,1.2c-1.4,0-2.2-0.4-2.2-1.2v-3.9c0-2.8-2.6-4.2-7.9-4.2
			C383.1,367,380.5,368.4,380.5,371.2z"/>
		<path id="path404320" class="st0" d="M442.1,371.2v25.6c0,2.8,2.6,4.2,7.9,4.2c5.3,0,7.9-1.4,7.9-4.2v-3.9c0-0.8,0.7-1.2,2.2-1.2
			c1.4,0,2.2,0.4,2.2,1.2v3.3c0,5.7-4,8.5-12,8.5c-3.7,0-6.8-0.7-9-2c-2.3-1.4-3.4-3.5-3.4-6.5v-24.5c0-3,1.1-5.1,3.4-6.5
			c2.3-1.4,5.3-2.1,9-2.1c8,0,12,2.8,12,8.5v3.3c0,0.8-0.7,1.2-2.2,1.2c-1.4,0-2.2-0.4-2.2-1.2v-3.9c0-2.8-2.6-4.2-7.9-4.2
			C444.7,367,442.1,368.4,442.1,371.2z"/>
		<path id="path404322" class="st0" d="M504.5,371.7v24.5c0,3-1.2,5.2-3.5,6.5c-2.3,1.3-5.4,2-9.2,2c-8.2,0-12.3-2.8-12.3-8.5v-24.5
			c0-3,1.2-5.1,3.5-6.5c2.3-1.4,5.4-2.1,9.2-2.1C500.4,363.2,504.5,366.1,504.5,371.7z M483.8,371.2v25.6c0,2.8,2.7,4.2,8.2,4.2
			c5.5,0,8.2-1.4,8.2-4.2v-25.6c0-2.8-2.7-4.2-8.2-4.2C486.5,367,483.8,368.4,483.8,371.2z"/>
		<path id="path404324" class="st0" d="M528.1,367.8h-0.5V403c0,0.8-0.7,1.2-2.2,1.2s-2.2-0.4-2.2-1.2v-34.9c0-1.6,0.2-2.6,0.5-3.2
			c0.4-0.6,1.3-0.9,2.7-0.9h1.2c2.5,0,4.2,0.3,5.1,0.9c0.9,0.6,1.6,2,2.2,4.3l7,28.4c0.3,1.3,0.6,2.1,0.9,2.4c0.3,0.3,1,0.5,2.2,0.5
			h0.5v-35.2c0-0.8,0.7-1.2,2.2-1.2s2.2,0.4,2.2,1.2v34.9c0,1.6-0.2,2.7-0.6,3.2c-0.4,0.5-1.2,0.8-2.6,0.8h-1.2
			c-2.5,0-4.2-0.3-5.1-0.9c-0.9-0.6-1.6-2-2.2-4.3l-7-28.4c-0.3-1.3-0.6-2.1-0.9-2.4C530,368,529.3,367.8,528.1,367.8L528.1,367.8z"
			/>
		<path id="path404326" class="st0" d="M565.5,364h22.7c0.7,0,1.1,0.6,1.1,1.9c0,1.3-0.4,1.9-1.1,1.9H579V403c0,0.8-0.7,1.2-2.2,1.2
			s-2.2-0.4-2.2-1.2v-35.2h-9.2c-0.7,0-1.1-0.6-1.1-1.9S564.8,364,565.5,364z"/>
		<path id="path404328" class="st0" d="M610.8,384h4.7c4.9,0,7.3-1.4,7.3-4.2v-8.6c0-2.8-2.5-4.2-7.4-4.2c-4.9,0-7.3,1.4-7.3,4.2
			V403c0,0.8-0.7,1.2-2.2,1.2c-1.4,0-2.2-0.4-2.2-1.2v-31.3c0-3,1.1-5.1,3.2-6.5c2.1-1.4,5-2.1,8.5-2.1s6.4,0.7,8.5,2.1
			c2.2,1.3,3.2,3.5,3.2,6.5v7.5c0,3.3-1.6,5.4-4.7,6.3c0.8,0.8,1.5,2,1.9,3.7c2.6,9.2,3.8,13.9,3.8,14.1c0,0.6-0.6,1-1.9,1
			s-2-0.4-2.3-1.2l-3.4-12.3c-0.3-1.3-0.8-2.1-1.3-2.4c-0.6-0.4-1.8-0.5-3.8-0.5h-4.8c-0.7,0-1.1-0.6-1.1-1.9S610.1,384,610.8,384z"
			/>
		<path id="path404330" class="st0" d="M671.1,371.7V403c0,0.8-0.7,1.2-2.2,1.2s-2.2-0.4-2.2-1.2v-14.6h-16.4V403
			c0,0.8-0.7,1.2-2.2,1.2s-2.2-0.4-2.2-1.2v-31.3c0-2,0.6-3.7,1.8-5c1.2-1.3,2.7-2.2,4.5-2.8c1.8-0.5,4-0.8,6.5-0.8
			C667,363.2,671.1,366.1,671.1,371.7L671.1,371.7z M650.4,371.2v13.4h16.4v-13.4c0-2.8-2.7-4.2-8.2-4.2
			C653.1,367,650.4,368.4,650.4,371.2z"/>
		<path id="path404332" class="st0" d="M694.3,371.2v25.6c0,2.8,2.6,4.2,7.9,4.2c5.3,0,7.9-1.4,7.9-4.2v-3.9c0-0.8,0.7-1.2,2.2-1.2
			s2.2,0.4,2.2,1.2v3.3c0,5.7-4,8.5-12,8.5c-3.7,0-6.8-0.7-9-2c-2.3-1.4-3.4-3.5-3.4-6.5v-24.5c0-3,1.1-5.1,3.4-6.5
			c2.3-1.4,5.3-2.1,9-2.1c8,0,12,2.8,12,8.5v3.3c0,0.8-0.7,1.2-2.2,1.2s-2.2-0.4-2.2-1.2v-3.9c0-2.8-2.6-4.2-7.9-4.2
			C696.9,367,694.3,368.4,694.3,371.2z"/>
		<path id="path404334" class="st0" d="M728.4,364h22.7c0.7,0,1.1,0.6,1.1,1.9c0,1.3-0.4,1.9-1.1,1.9h-9.2V403
			c0,0.8-0.7,1.2-2.2,1.2s-2.2-0.4-2.2-1.2v-35.2h-9.2c-0.7,0-1.1-0.6-1.1-1.9S727.7,364,728.4,364z"/>
		<path id="path404336" class="st0" d="M771.5,365v38c0,0.8-0.7,1.2-2.2,1.2s-2.2-0.4-2.2-1.2v-38c0-0.8,0.7-1.2,2.2-1.2
			S771.5,364.2,771.5,365z"/>
		<path id="path404338" class="st0" d="M796.3,367.8h-0.5V403c0,0.8-0.7,1.2-2.2,1.2s-2.2-0.4-2.2-1.2v-34.9c0-1.6,0.2-2.6,0.5-3.2
			c0.4-0.6,1.3-0.9,2.7-0.9h1.2c2.5,0,4.2,0.3,5.1,0.9c0.9,0.6,1.6,2,2.2,4.3l7,28.4c0.3,1.3,0.6,2.1,0.9,2.4c0.3,0.3,1,0.5,2.2,0.5
			h0.5v-35.2c0-0.8,0.7-1.2,2.2-1.2s2.2,0.4,2.2,1.2v34.9c0,1.6-0.2,2.7-0.6,3.2c-0.4,0.5-1.2,0.8-2.6,0.8h-1.2
			c-2.5,0-4.2-0.3-5.1-0.9c-0.9-0.6-1.6-2-2.2-4.3l-7-28.4c-0.3-1.3-0.6-2.1-0.9-2.4C798.2,368,797.5,367.8,796.3,367.8L796.3,367.8
			z"/>
		<path id="path404340" class="st0" d="M857.6,396.8v-5.3c0-1.7-0.3-3-0.9-3.7c-0.6-0.7-1.8-1.1-3.7-1.1h-4.2
			c-0.7,0-1.1-0.6-1.1-1.9s0.4-1.9,1.1-1.9h4.2c3.2,0,5.5,0.6,6.9,1.9c1.4,1.3,2.1,3.5,2.1,6.6v4.8c0,3-1.2,5.2-3.5,6.5
			c-2.3,1.3-5.4,2-9.2,2c-8.2,0-12.3-2.8-12.3-8.5v-24.5c0-3,1.1-5.1,3.3-6.5c2.3-1.4,5.2-2.1,8.9-2.1c8,0,11.9,2.8,11.9,8.5v3
			c0,0.8-0.7,1.2-2.2,1.2s-2.2-0.4-2.2-1.2v-3.5c0-2.8-2.6-4.2-7.8-4.2c-5.2,0-7.8,1.4-7.8,4.2v25.6c0,2.8,2.7,4.2,8.2,4.2
			C854.8,401,857.6,399.6,857.6,396.8z"/>
	</g>
	<g id="tagline">
	</g>
</g>
<circle class="st2" cx="260" cy="384.6" r="17.5"/>
<circle class="st3" cx="260" cy="384.1" r="4.5"/>
<circle class="st3" cx="260" cy="367.1" r="4.5"/>
</svg>
